<svg width="31" height="31" viewBox="0 0 31 31" fill="none" xmlns="http://www.w3.org/2000/svg">
<path d="M15.5003 21.9584C14.8152 21.9584 14.1581 21.6862 13.6736 21.2017C13.1892 20.7172 12.917 20.0602 12.917 19.375C12.917 17.9413 14.0666 16.7917 15.5003 16.7917C16.1855 16.7917 16.8425 17.0639 17.327 17.5483C17.8115 18.0328 18.0837 18.6899 18.0837 19.375C18.0837 20.0602 17.8115 20.7172 17.327 21.2017C16.8425 21.6862 16.1855 21.9584 15.5003 21.9584ZM23.2503 25.8334V12.9167H7.75033V25.8334H23.2503ZM23.2503 10.3334C23.9355 10.3334 24.5925 10.6055 25.077 11.09C25.5615 11.5745 25.8337 12.2315 25.8337 12.9167V25.8334C25.8337 26.5185 25.5615 27.1756 25.077 27.66C24.5925 28.1445 23.9355 28.4167 23.2503 28.4167H7.75033C7.06518 28.4167 6.4081 28.1445 5.92363 27.66C5.43916 27.1756 5.16699 26.5185 5.16699 25.8334V12.9167C5.16699 11.4829 6.31658 10.3334 7.75033 10.3334H9.04199V7.75002C9.04199 6.03716 9.72242 4.39446 10.9336 3.18329C12.1448 1.97212 13.7875 1.29169 15.5003 1.29169C16.3484 1.29169 17.1883 1.45874 17.9718 1.7833C18.7554 2.10786 19.4673 2.58358 20.0671 3.18329C20.6668 3.783 21.1425 4.49496 21.467 5.27852C21.7916 6.06208 21.9587 6.9019 21.9587 7.75002V10.3334H23.2503ZM15.5003 3.87502C14.4726 3.87502 13.487 4.28328 12.7603 5.00998C12.0336 5.73668 11.6253 6.72231 11.6253 7.75002V10.3334H19.3753V7.75002C19.3753 6.72231 18.9671 5.73668 18.2404 5.00998C17.5137 4.28328 16.528 3.87502 15.5003 3.87502Z" fill="#343333"/>
</svg>
