<svg width="72" height="72" viewBox="0 0 72 72" fill="none" xmlns="http://www.w3.org/2000/svg">
<path d="M18 18C18 17.2044 18.3161 16.4413 18.8787 15.8787C19.4413 15.3161 20.2044 15 21 15H51C51.7957 15 52.5587 15.3161 53.1213 15.8787C53.6839 16.4413 54 17.2044 54 18C54 18.7956 53.6839 19.5587 53.1213 20.1213C52.5587 20.6839 51.7957 21 51 21H21C20.2044 21 19.4413 20.6839 18.8787 20.1213C18.3161 19.5587 18 18.7956 18 18ZM18 30C18 29.2044 18.3161 28.4413 18.8787 27.8787C19.4413 27.3161 20.2044 27 21 27H51C51.7957 27 52.5587 27.3161 53.1213 27.8787C53.6839 28.4413 54 29.2044 54 30C54 30.7956 53.6839 31.5587 53.1213 32.1213C52.5587 32.6839 51.7957 33 51 33H21C20.2044 33 19.4413 32.6839 18.8787 32.1213C18.3161 31.5587 18 30.7956 18 30ZM21 39C20.2044 39 19.4413 39.3161 18.8787 39.8787C18.3161 40.4413 18 41.2044 18 42C18 42.7956 18.3161 43.5587 18.8787 44.1213C19.4413 44.6839 20.2044 45 21 45H51C51.7957 45 52.5587 44.6839 53.1213 44.1213C53.6839 43.5587 54 42.7956 54 42C54 41.2044 53.6839 40.4413 53.1213 39.8787C52.5587 39.3161 51.7957 39 51 39H21ZM18 54C18 53.2043 18.3161 52.4413 18.8787 51.8787C19.4413 51.3161 20.2044 51 21 51H33C33.7956 51 34.5587 51.3161 35.1213 51.8787C35.6839 52.4413 36 53.2043 36 54C36 54.7957 35.6839 55.5587 35.1213 56.1213C34.5587 56.6839 33.7956 57 33 57H21C20.2044 57 19.4413 56.6839 18.8787 56.1213C18.3161 55.5587 18 54.7957 18 54Z" fill="white"/>
<path fill-rule="evenodd" clip-rule="evenodd" d="M6 12C6 9.61305 6.94821 7.32387 8.63604 5.63604C10.3239 3.94821 12.6131 3 15 3H57C59.3869 3 61.6761 3.94821 63.364 5.63604C65.0518 7.32387 66 9.61305 66 12V60C66 62.3869 65.0518 64.6761 63.364 66.364C61.6761 68.0518 59.3869 69 57 69H15C12.6131 69 10.3239 68.0518 8.63604 66.364C6.94821 64.6761 6 62.3869 6 60V12ZM15 9H57C57.7957 9 58.5587 9.31607 59.1213 9.87868C59.6839 10.4413 60 11.2044 60 12V60C60 60.7957 59.6839 61.5587 59.1213 62.1213C58.5587 62.6839 57.7957 63 57 63H15C14.2044 63 13.4413 62.6839 12.8787 62.1213C12.3161 61.5587 12 60.7957 12 60V12C12 11.2044 12.3161 10.4413 12.8787 9.87868C13.4413 9.31607 14.2044 9 15 9Z" fill="white"/>
</svg>
