<svg width="35" height="35" viewBox="0 0 35 35" fill="none" xmlns="http://www.w3.org/2000/svg">
<path d="M17.4997 24.7917C18.2732 24.7917 19.0151 24.4844 19.5621 23.9374C20.109 23.3905 20.4163 22.6486 20.4163 21.875C20.4163 21.1015 20.109 20.3596 19.5621 19.8126C19.0151 19.2657 18.2732 18.9584 17.4997 18.9584C16.7261 18.9584 15.9843 19.2657 15.4373 19.8126C14.8903 20.3596 14.583 21.1015 14.583 21.875C14.583 22.6486 14.8903 23.3905 15.4373 23.9374C15.9843 24.4844 16.7261 24.7917 17.4997 24.7917ZM26.2497 11.6667C27.0232 11.6667 27.7651 11.974 28.3121 12.521C28.8591 13.068 29.1663 13.8098 29.1663 14.5834V29.1667C29.1663 29.9403 28.8591 30.6821 28.3121 31.2291C27.7651 31.7761 27.0232 32.0834 26.2497 32.0834H8.74967C7.97613 32.0834 7.23426 31.7761 6.68728 31.2291C6.1403 30.6821 5.83301 29.9403 5.83301 29.1667V14.5834C5.83301 13.8098 6.1403 13.068 6.68728 12.521C7.23426 11.974 7.97613 11.6667 8.74967 11.6667H10.208V8.75004C10.208 6.81617 10.9762 4.96151 12.3437 3.59405C13.7111 2.2266 15.5658 1.45837 17.4997 1.45837C18.4572 1.45837 19.4054 1.64698 20.2901 2.01342C21.1747 2.37986 21.9786 2.91696 22.6557 3.59405C23.3328 4.27115 23.8699 5.07497 24.2363 5.95964C24.6027 6.84431 24.7913 7.79249 24.7913 8.75004V11.6667H26.2497ZM17.4997 4.37504C16.3394 4.37504 15.2266 4.83598 14.4061 5.65645C13.5856 6.47692 13.1247 7.58972 13.1247 8.75004V11.6667H21.8747V8.75004C21.8747 7.58972 21.4137 6.47692 20.5933 5.65645C19.7728 4.83598 18.66 4.37504 17.4997 4.37504Z" fill="#343333"/>
</svg>
