<svg width="77" height="77" viewBox="0 0 77 77" fill="none" xmlns="http://www.w3.org/2000/svg">
<path d="M69.9063 4.74834L71.7992 6.64126C74.4076 9.25284 74.0129 13.8825 70.9105 16.9817L31.8747 56.0175L19.2274 60.6439C17.6393 61.2278 16.0929 60.4707 15.7785 58.9596C15.6722 58.4114 15.7222 57.8444 15.9229 57.3233L20.6391 44.567L59.5658 5.63705C62.6683 2.5378 67.2979 2.13676 69.9063 4.74834ZM30.1711 8.63043C30.5924 8.63043 31.0096 8.71341 31.3988 8.87465C31.7881 9.03588 32.1418 9.2722 32.4397 9.57013C32.7376 9.86805 32.9739 10.2217 33.1352 10.611C33.2964 11.0002 33.3794 11.4174 33.3794 11.8388C33.3794 12.2601 33.2964 12.6773 33.1352 13.0665C32.9739 13.4558 32.7376 13.8095 32.4397 14.1074C32.1418 14.4053 31.7881 14.6416 31.3988 14.8029C31.0096 14.9641 30.5924 15.0471 30.1711 15.0471H17.3377C15.6359 15.0471 14.0038 15.7231 12.8005 16.9265C11.5971 18.1299 10.9211 19.762 10.9211 21.4638V59.9638C10.9211 61.6656 11.5971 63.2977 12.8005 64.501C14.0038 65.7044 15.6359 66.3804 17.3377 66.3804H55.8377C57.5395 66.3804 59.1716 65.7044 60.375 64.501C61.5784 63.2977 62.2544 61.6656 62.2544 59.9638V47.1304C62.2544 46.2795 62.5924 45.4635 63.1941 44.8618C63.7958 44.2601 64.6118 43.9221 65.4627 43.9221C66.3136 43.9221 67.1297 44.2601 67.7314 44.8618C68.333 45.4635 68.6711 46.2795 68.6711 47.1304V59.9638C68.6711 63.3674 67.319 66.6316 64.9123 69.0383C62.5056 71.445 59.2413 72.7971 55.8377 72.7971H17.3377C13.9341 72.7971 10.6699 71.445 8.26319 69.0383C5.85647 66.6316 4.50439 63.3674 4.50439 59.9638V21.4638C4.50439 18.0601 5.85647 14.7959 8.26319 12.3892C10.6699 9.98251 13.9341 8.63043 17.3377 8.63043H30.1711Z" fill="white"/>
</svg>
